<svg xmlns="http://www.w3.org/2000/svg" width="undefined" height="undefined" viewBox="0 0 14 14">
    <path fill="currentColor" fill-rule="evenodd" d="M2.5 0A1.5 1.5 0 0 0 1 1.5v8.919l-.974 2.923a.5.5 0 0 0 .595.643L4.561 13H12.5a1.5 1.5 0 0 0 1.5-1.5v-10A1.5 1.5 0 0 0 12.5 0zm2.833 5.14A2.625 2.625 0 0 0 8.94 8.746zm-.54-1.334a3.875 3.875 0 0 0 5.48 5.48a.655.655 0 0 0 .09-.09a3.875 3.875 0 0 0-5.48-5.48a.632.632 0 0 0-.09.09m1.424.45l3.606 3.606a2.625 2.625 0 0 0-3.606-3.606" clip-rule="evenodd"/>
</svg>